{
    "asset" : {
        "generator" : "Khronos glTF Blender I/O v1.8.19",
        "version" : "2.0"
    },
    "scene" : 0,
    "scenes" : [
        {
            "name" : "Scene",
            "nodes" : [
                0,
                1,
                2,
                3,
                4,
                5,
                6
            ]
        }
    ],
    "nodes" : [
        {
            "mesh" : 0,
            "name" : "Curve",
            "scale" : [
                163.47921752929688,
                163.47921752929688,
                163.47921752929688
            ]
        },
        {
            "mesh" : 1,
            "name" : "Curve.001",
            "scale" : [
                163.47921752929688,
                163.47921752929688,
                163.47921752929688
            ]
        },
        {
            "mesh" : 2,
            "name" : "Curve.003",
            "scale" : [
                163.47921752929688,
                163.47921752929688,
                163.47921752929688
            ]
        },
        {
            "mesh" : 3,
            "name" : "Curve.004",
            "scale" : [
                163.47921752929688,
                163.47921752929688,
                163.47921752929688
            ]
        },
        {
            "mesh" : 4,
            "name" : "Curve.005",
            "scale" : [
                163.47921752929688,
                163.47921752929688,
                163.47921752929688
            ]
        },
        {
            "mesh" : 5,
            "name" : "Curve.006",
            "scale" : [
                163.47921752929688,
                163.47921752929688,
                163.47921752929688
            ]
        },
        {
            "mesh" : 6,
            "name" : "Curve.007",
            "scale" : [
                163.47921752929688,
                163.47921752929688,
                163.47921752929688
            ]
        }
    ],
    "materials" : [
        {
            "doubleSided" : true,
            "name" : "SVGMat.005",
            "pbrMetallicRoughness" : {
                "baseColorFactor" : [
                    0,
                    0,
                    0,
                    1
                ],
                "metallicFactor" : 0,
                "roughnessFactor" : 0.4000000059604645
            }
        }
    ],
    "meshes" : [
        {
            "name" : "Curve.008",
            "primitives" : [
                {
                    "attributes" : {
                        "POSITION" : 0,
                        "NORMAL" : 1,
                        "TEXCOORD_0" : 2
                    },
                    "indices" : 3,
                    "material" : 0
                }
            ]
        },
        {
            "name" : "Curve.009",
            "primitives" : [
                {
                    "attributes" : {
                        "POSITION" : 4,
                        "NORMAL" : 5,
                        "TEXCOORD_0" : 6
                    },
                    "indices" : 7,
                    "material" : 0
                }
            ]
        },
        {
            "name" : "Curve.010",
            "primitives" : [
                {
                    "attributes" : {
                        "POSITION" : 8,
                        "NORMAL" : 9,
                        "TEXCOORD_0" : 10
                    },
                    "indices" : 11,
                    "material" : 0
                }
            ]
        },
        {
            "name" : "Curve.011",
            "primitives" : [
                {
                    "attributes" : {
                        "POSITION" : 12,
                        "NORMAL" : 13,
                        "TEXCOORD_0" : 14
                    },
                    "indices" : 15,
                    "material" : 0
                }
            ]
        },
        {
            "name" : "Curve.012",
            "primitives" : [
                {
                    "attributes" : {
                        "POSITION" : 16,
                        "NORMAL" : 17,
                        "TEXCOORD_0" : 18
                    },
                    "indices" : 19,
                    "material" : 0
                }
            ]
        },
        {
            "name" : "Curve.013",
            "primitives" : [
                {
                    "attributes" : {
                        "POSITION" : 20,
                        "NORMAL" : 21,
                        "TEXCOORD_0" : 22
                    },
                    "indices" : 23,
                    "material" : 0
                }
            ]
        },
        {
            "name" : "Curve.014",
            "primitives" : [
                {
                    "attributes" : {
                        "POSITION" : 24,
                        "NORMAL" : 25,
                        "TEXCOORD_0" : 26
                    },
                    "indices" : 27,
                    "material" : 0
                }
            ]
        }
    ],
    "accessors" : [
        {
            "bufferView" : 0,
            "componentType" : 5126,
            "count" : 3785,
            "max" : [
                0.007958829402923584,
                0.0028723576106131077,
                -0.009509073570370674
            ],
            "min" : [
                0.0015522539615631104,
                0,
                -0.0187077634036541
            ],
            "type" : "VEC3"
        },
        {
            "bufferView" : 1,
            "componentType" : 5126,
            "count" : 3785,
            "type" : "VEC3"
        },
        {
            "bufferView" : 2,
            "componentType" : 5126,
            "count" : 3785,
            "type" : "VEC2"
        },
        {
            "bufferView" : 3,
            "componentType" : 5123,
            "count" : 6624,
            "type" : "SCALAR"
        },
        {
            "bufferView" : 4,
            "componentType" : 5126,
            "count" : 1067,
            "max" : [
                0.020969539880752563,
                0.0028723576106131077,
                -0.006574520841240883
            ],
            "min" : [
                0.01267203688621521,
                0,
                -0.026298092678189278
            ],
            "type" : "VEC3"
        },
        {
            "bufferView" : 5,
            "componentType" : 5126,
            "count" : 1067,
            "type" : "VEC3"
        },
        {
            "bufferView" : 6,
            "componentType" : 5126,
            "count" : 1067,
            "type" : "VEC2"
        },
        {
            "bufferView" : 7,
            "componentType" : 5123,
            "count" : 2304,
            "type" : "SCALAR"
        },
        {
            "bufferView" : 8,
            "componentType" : 5126,
            "count" : 1991,
            "max" : [
                0.014308959245681763,
                0.0028723576106131077,
                -0.00747746042907238
            ],
            "min" : [
                0.008833736181259155,
                0,
                -0.02164231240749359
            ],
            "type" : "VEC3"
        },
        {
            "bufferView" : 9,
            "componentType" : 5126,
            "count" : 1991,
            "type" : "VEC3"
        },
        {
            "bufferView" : 10,
            "componentType" : 5126,
            "count" : 1991,
            "type" : "VEC2"
        },
        {
            "bufferView" : 11,
            "componentType" : 5123,
            "count" : 4176,
            "type" : "SCALAR"
        },
        {
            "bufferView" : 12,
            "componentType" : 5126,
            "count" : 2418,
            "max" : [
                0.02603396587073803,
                0.0028723576106131077,
                -0.00747746042907238
            ],
            "min" : [
                0.019360840320587158,
                0,
                -0.021654851734638214
            ],
            "type" : "VEC3"
        },
        {
            "bufferView" : 13,
            "componentType" : 5126,
            "count" : 2418,
            "type" : "VEC3"
        },
        {
            "bufferView" : 14,
            "componentType" : 5126,
            "count" : 2418,
            "type" : "VEC2"
        },
        {
            "bufferView" : 15,
            "componentType" : 5123,
            "count" : 4176,
            "type" : "SCALAR"
        },
        {
            "bufferView" : 16,
            "componentType" : 5126,
            "count" : 1635,
            "max" : [
                0.03164314851164818,
                0.0028723576106131077,
                -0.009008223190903664
            ],
            "min" : [
                0.02633187174797058,
                0,
                -0.018919389694929123
            ],
            "type" : "VEC3"
        },
        {
            "bufferView" : 17,
            "componentType" : 5126,
            "count" : 1635,
            "type" : "VEC3"
        },
        {
            "bufferView" : 18,
            "componentType" : 5126,
            "count" : 1635,
            "type" : "VEC2"
        },
        {
            "bufferView" : 19,
            "componentType" : 5123,
            "count" : 2592,
            "type" : "SCALAR"
        },
        {
            "bufferView" : 20,
            "componentType" : 5126,
            "count" : 784,
            "max" : [
                0.024761095643043518,
                0.0028723576106131077,
                -0.014663349837064743
            ],
            "min" : [
                0.020517975091934204,
                0,
                -0.020244009792804718
            ],
            "type" : "VEC3"
        },
        {
            "bufferView" : 21,
            "componentType" : 5126,
            "count" : 784,
            "type" : "VEC3"
        },
        {
            "bufferView" : 22,
            "componentType" : 5126,
            "count" : 784,
            "type" : "VEC2"
        },
        {
            "bufferView" : 23,
            "componentType" : 5123,
            "count" : 1284,
            "type" : "SCALAR"
        },
        {
            "bufferView" : 24,
            "componentType" : 5126,
            "count" : 1620,
            "max" : [
                0.03067818284034729,
                0.0028723576106131077,
                -0.010218019597232342
            ],
            "min" : [
                0.02725728042423725,
                0,
                -0.017667265608906746
            ],
            "type" : "VEC3"
        },
        {
            "bufferView" : 25,
            "componentType" : 5126,
            "count" : 1620,
            "type" : "VEC3"
        },
        {
            "bufferView" : 26,
            "componentType" : 5126,
            "count" : 1620,
            "type" : "VEC2"
        },
        {
            "bufferView" : 27,
            "componentType" : 5123,
            "count" : 2592,
            "type" : "SCALAR"
        }
    ],
    "bufferViews" : [
        {
            "buffer" : 0,
            "byteLength" : 45420,
            "byteOffset" : 0
        },
        {
            "buffer" : 0,
            "byteLength" : 45420,
            "byteOffset" : 45420
        },
        {
            "buffer" : 0,
            "byteLength" : 30280,
            "byteOffset" : 90840
        },
        {
            "buffer" : 0,
            "byteLength" : 13248,
            "byteOffset" : 121120
        },
        {
            "buffer" : 0,
            "byteLength" : 12804,
            "byteOffset" : 134368
        },
        {
            "buffer" : 0,
            "byteLength" : 12804,
            "byteOffset" : 147172
        },
        {
            "buffer" : 0,
            "byteLength" : 8536,
            "byteOffset" : 159976
        },
        {
            "buffer" : 0,
            "byteLength" : 4608,
            "byteOffset" : 168512
        },
        {
            "buffer" : 0,
            "byteLength" : 23892,
            "byteOffset" : 173120
        },
        {
            "buffer" : 0,
            "byteLength" : 23892,
            "byteOffset" : 197012
        },
        {
            "buffer" : 0,
            "byteLength" : 15928,
            "byteOffset" : 220904
        },
        {
            "buffer" : 0,
            "byteLength" : 8352,
            "byteOffset" : 236832
        },
        {
            "buffer" : 0,
            "byteLength" : 29016,
            "byteOffset" : 245184
        },
        {
            "buffer" : 0,
            "byteLength" : 29016,
            "byteOffset" : 274200
        },
        {
            "buffer" : 0,
            "byteLength" : 19344,
            "byteOffset" : 303216
        },
        {
            "buffer" : 0,
            "byteLength" : 8352,
            "byteOffset" : 322560
        },
        {
            "buffer" : 0,
            "byteLength" : 19620,
            "byteOffset" : 330912
        },
        {
            "buffer" : 0,
            "byteLength" : 19620,
            "byteOffset" : 350532
        },
        {
            "buffer" : 0,
            "byteLength" : 13080,
            "byteOffset" : 370152
        },
        {
            "buffer" : 0,
            "byteLength" : 5184,
            "byteOffset" : 383232
        },
        {
            "buffer" : 0,
            "byteLength" : 9408,
            "byteOffset" : 388416
        },
        {
            "buffer" : 0,
            "byteLength" : 9408,
            "byteOffset" : 397824
        },
        {
            "buffer" : 0,
            "byteLength" : 6272,
            "byteOffset" : 407232
        },
        {
            "buffer" : 0,
            "byteLength" : 2568,
            "byteOffset" : 413504
        },
        {
            "buffer" : 0,
            "byteLength" : 19440,
            "byteOffset" : 416072
        },
        {
            "buffer" : 0,
            "byteLength" : 19440,
            "byteOffset" : 435512
        },
        {
            "buffer" : 0,
            "byteLength" : 12960,
            "byteOffset" : 454952
        },
        {
            "buffer" : 0,
            "byteLength" : 5184,
            "byteOffset" : 467912
        }
    ],
    "buffers" : [
        {
            "byteLength" : 473096,
            "uri" : "data:application/octet-stream;base64,"
        }
    ]
}
